<svg width="203" height="40" viewBox="0 0 203 40" fill="none" xmlns="http://www.w3.org/2000/svg">
<g clip-path="url(#clip0_469_8492)">
<path d="M13.8856 15.4859C13.8856 13.7048 12.4424 12.2616 10.6613 12.2616C8.88025 12.2616 7.43708 13.7048 7.43708 15.4859C7.43708 17.2669 8.88025 18.7101 10.6613 18.7101C12.4424 18.7101 13.8856 17.2669 13.8856 15.4859Z" fill="#40E0D0"/>
<path fill-rule="evenodd" clip-rule="evenodd" d="M21.6238 13.8389V10.6856C21.6238 9.92211 22.444 9.43976 23.1108 9.80991L25.9494 11.3872C26.6355 11.769 26.6355 12.7556 25.9494 13.1373L23.1108 14.7146C22.444 15.0848 21.6238 14.6024 21.6238 13.8389ZM15.8201 12.2616C15.8201 7.99401 19.2907 4.52344 23.5583 4.52344C27.8259 4.52344 31.2965 7.99401 31.2965 12.2616C31.2965 16.5292 27.8259 19.9998 23.5583 19.9998C19.2907 19.9998 15.8201 16.5292 15.8201 12.2616ZM18.3995 12.2616C18.3995 15.1067 20.7132 17.4204 23.5583 17.4204C26.4034 17.4204 28.7171 15.1067 28.7171 12.2616C28.7171 9.41655 26.4034 7.10283 23.5583 7.10283C20.7132 7.10283 18.3995 9.41655 18.3995 12.2616ZM30.0068 19.9998C29.2936 19.9998 28.7171 20.5776 28.7171 21.2895V23.8689C28.7171 26.0021 26.9812 27.738 24.848 27.738H6.79223C4.65908 27.738 2.92314 26.0021 2.92314 23.8689V13.5513C2.92314 11.4182 4.65908 9.68223 6.79223 9.68223H13.2407C13.9539 9.68223 14.5304 9.10444 14.5304 8.39253C14.5304 7.68062 13.9539 7.10283 13.2407 7.10283H6.79223C3.23654 7.10283 0.34375 9.99562 0.34375 13.5513V23.8689C0.34375 27.4246 3.23654 30.3174 6.79223 30.3174H14.5304V32.8968H9.37163C8.65843 32.8968 8.08193 33.4733 8.08193 34.1865C8.08193 34.8997 8.65843 35.4762 9.37163 35.4762H22.2686C22.9818 35.4762 23.5583 34.8997 23.5583 34.1865C23.5583 33.4733 22.9818 32.8968 22.2686 32.8968H17.1098V30.3174H24.848C28.4037 30.3174 31.2965 27.4246 31.2965 23.8689V21.2895C31.2965 20.5776 30.72 19.9998 30.0068 19.9998Z" fill="white"/>
<path d="M5.58379 23.4162C5.33488 24.083 5.67149 24.8258 6.33955 25.076C7.00117 25.3224 7.74919 24.9896 7.99939 24.3203C8.39017 23.2782 9.45933 22.5779 10.66 22.5779C11.8607 22.5779 12.9312 23.2782 13.3207 24.3203C13.5696 24.9948 14.3305 25.3237 14.9805 25.076C15.6486 24.8258 15.9852 24.0817 15.7363 23.4162C14.9703 21.3724 12.9307 20.0003 10.66 19.9998C8.3894 20.0003 6.34972 21.3724 5.58379 23.4162Z" fill="#40E0D0"/>
</g>
<path d="M65.3187 29.3244L62.5164 18.231C61.9964 16.1221 61.7075 14.0998 61.332 12.0776C60.9564 14.0709 60.6675 16.1221 60.1186 18.2599L57.3164 29.3244C56.9986 30.5378 56.3052 31.1733 55.0052 31.1733C53.7919 31.1733 53.0985 30.5378 52.7808 29.3244L47.5807 10.3153C47.5229 10.142 47.5229 9.99754 47.5229 9.85309C47.5229 9.01531 48.1874 8.52419 49.2563 8.52419C50.0941 8.52419 50.5563 8.92864 50.7585 9.70865L53.8497 21.9866C54.3986 24.1244 54.6875 26.2622 55.0919 28.2555C55.5541 26.2333 55.843 24.1244 56.363 22.0443L59.3964 9.91087C59.6275 8.98642 60.1764 8.52419 61.3031 8.52419C62.4009 8.52419 62.9498 8.98642 63.1809 9.88198L66.3009 22.0155C66.8498 24.1821 67.1965 26.2911 67.572 28.2266C68.0054 26.2622 68.3521 24.1821 68.9009 22.0155L71.9632 9.70865C72.1654 8.87086 72.6854 8.52419 73.4654 8.52419C74.5055 8.52419 75.141 9.04419 75.141 9.88198C75.141 10.0553 75.1121 10.2287 75.0543 10.4309L69.8543 29.3244C69.5076 30.5378 68.8143 31.1733 67.5432 31.1733C66.3009 31.1733 65.6365 30.5378 65.3187 29.3244ZM88.1547 24.3266H79.6324C79.7768 26.6666 81.1057 29.0355 83.7635 29.0355C85.2947 29.0355 86.4214 28.2266 87.1436 26.5511C87.4036 25.9444 87.8658 25.6844 88.3858 25.6844C89.1658 25.6844 90.0325 26.2333 90.0325 26.9266C90.0325 27.1288 89.9747 27.3311 89.8592 27.5622C88.588 30.1044 86.5947 31.3756 83.7635 31.3756C79.5168 31.3756 76.8301 28.2555 76.8301 23.5466C76.8301 19.6465 79.0835 15.7754 83.7924 15.7754C88.5592 15.7754 90.2058 20.051 90.2058 22.2177C90.2058 23.6332 89.5125 24.3266 88.1547 24.3266ZM79.7191 22.0155H87.1147C87.3169 22.0155 87.4325 21.871 87.4325 21.6977L87.4036 21.5821C86.9702 19.2421 85.6991 18.0865 83.7924 18.0865C81.7413 18.0865 80.1524 19.531 79.7191 22.0155ZM96.6761 29.2666V29.8444C96.6761 30.7689 96.2139 31.2022 95.2317 31.2022C94.3072 31.2022 93.845 30.7689 93.845 29.8444V9.8242C93.845 8.95753 94.3361 8.52419 95.2605 8.52419C96.2428 8.52419 96.6761 8.95753 96.6761 9.8242V17.971C97.7739 16.4398 99.2473 15.7754 100.923 15.7754C105.516 15.7754 107.567 19.4154 107.567 23.5466C107.567 27.4755 105.458 31.3756 100.952 31.3756C99.1895 31.3756 97.8028 30.74 96.6761 29.2666ZM96.6761 21.2643V26.0311C97.6872 27.88 99.0161 28.9489 100.692 28.9489C103.118 28.9489 104.678 26.8688 104.678 23.5466C104.678 20.2532 103.118 18.2021 100.692 18.2021C98.9295 18.2021 97.6295 19.2999 96.6761 21.2643ZM114.324 17.2487V29.8733C114.324 30.7689 113.832 31.2022 112.85 31.2022C111.897 31.2022 111.435 30.7689 111.435 29.8733V17.2487C111.435 16.3821 111.926 15.9487 112.879 15.9487C113.861 15.9487 114.324 16.3821 114.324 17.2487ZM112.879 8.52419C113.977 8.52419 114.872 9.41975 114.872 10.5175C114.872 11.6153 113.977 12.5109 112.879 12.5109C111.781 12.5109 110.886 11.6153 110.886 10.5175C110.886 9.41975 111.781 8.52419 112.879 8.52419ZM131.403 21.6688V29.9022C131.403 30.7689 130.912 31.2022 129.959 31.2022C128.977 31.2022 128.514 30.7689 128.514 29.9022V21.8132C128.514 19.3865 127.59 18.231 125.856 18.231C124.296 18.231 123.054 19.2421 121.812 21.2643V29.8733C121.812 30.7689 121.379 31.2022 120.396 31.2022C119.443 31.2022 118.981 30.7689 118.981 29.8733V17.2487C118.981 16.3821 119.443 15.9487 120.425 15.9487C121.379 15.9487 121.812 16.3821 121.812 17.2487V18.0287C122.91 16.6421 124.325 15.7754 126.088 15.7754C129.641 15.7754 131.403 17.7398 131.403 21.6688ZM147.594 20.5132V26.6955C147.594 27.7933 147.738 28.6022 148.056 29.1511C148.171 29.3533 148.229 29.5555 148.229 29.7867C148.229 30.7111 147.305 31.2022 146.554 31.2022C146.091 31.2022 145.716 30.9711 145.456 30.5089C145.369 30.3355 145.196 29.9022 145.109 29.5555C143.578 30.8556 141.989 31.3756 139.967 31.3756C136.905 31.3756 134.969 29.7 134.969 26.9266C134.969 24.3266 136.442 22.8244 139.765 21.9577C141.122 21.611 142.74 21.3221 144.82 21.1488V20.4843C144.82 18.8954 143.809 18.0576 141.931 18.0576C139.736 18.0576 139.042 19.011 138.609 20.2821C138.378 20.9466 137.858 21.1777 137.338 21.1777C136.471 21.1777 135.72 20.7154 135.72 19.9932C135.72 19.8488 135.749 19.6754 135.807 19.5021C136.673 16.9887 138.782 15.7754 141.96 15.7754C145.86 15.7754 147.594 17.3354 147.594 20.5132ZM144.82 26.9555V23.3155C143.116 23.4599 141.614 23.7777 140.256 24.211C138.667 24.731 137.771 25.5688 137.771 26.9266C137.771 28.2555 138.811 29.0933 140.371 29.0933C141.96 29.0933 143.405 28.3422 144.82 26.9555ZM154.876 22.4199V29.8733C154.876 30.7689 154.385 31.2022 153.432 31.2022C152.478 31.2022 152.016 30.7689 152.016 29.8733V17.2487C152.016 16.3821 152.507 15.9487 153.461 15.9487C154.414 15.9487 154.876 16.3821 154.876 17.2487V18.231C155.338 17.4798 155.945 16.931 156.523 16.5265C157.332 15.9776 158.17 15.7754 159.441 15.7754C160.481 15.7754 160.856 16.1798 160.856 17.0465C160.856 18.0287 160.394 18.5199 159.47 18.5199C158.141 18.5199 157.332 18.6643 156.667 19.2132C155.858 19.8777 155.223 20.9177 154.876 22.4199Z" fill="#40E0D0"/>
<path d="M163.205 27.0133C164.361 27.0133 165.285 27.9666 165.285 29.0933C165.285 30.2489 164.361 31.1733 163.205 31.1733C162.05 31.1733 161.125 30.2489 161.125 29.0933C161.125 27.9666 162.05 27.0133 163.205 27.0133ZM179.451 31.7222V28.9489C178.44 30.48 176.938 31.1733 175.118 31.1733C170.553 31.1733 168.473 27.3311 168.473 23.431C168.473 19.4443 170.756 15.7754 175.147 15.7754C176.822 15.7754 178.238 16.3821 179.393 17.8265V17.2487C179.393 16.3532 179.827 15.9198 180.78 15.9198C181.733 15.9198 182.225 16.3532 182.225 17.2487V31.4622C182.225 36.0267 179.422 38.5979 175.493 38.5979C172.056 38.5979 169.542 36.9223 169.08 34.3223C169.08 34.2067 169.051 34.12 169.051 34.0334C169.051 33.2245 169.6 32.7622 170.698 32.7622C171.391 32.7622 171.824 33.0511 171.969 33.8311C172.229 35.2178 173.587 36.1712 175.493 36.1712C177.429 36.1712 179.451 34.9578 179.451 31.7222ZM179.393 25.6844V21.091C178.44 19.2421 177.082 18.2021 175.378 18.2021C172.951 18.2021 171.362 20.2243 171.362 23.431C171.362 26.6666 172.893 28.7466 175.349 28.7466C177.082 28.7466 178.44 27.62 179.393 25.6844ZM197.069 31.7222V28.9489C196.058 30.48 194.556 31.1733 192.736 31.1733C188.171 31.1733 186.091 27.3311 186.091 23.431C186.091 19.4443 188.373 15.7754 192.765 15.7754C194.44 15.7754 195.856 16.3821 197.011 17.8265V17.2487C197.011 16.3532 197.445 15.9198 198.398 15.9198C199.351 15.9198 199.842 16.3532 199.842 17.2487V31.4622C199.842 36.0267 197.04 38.5979 193.111 38.5979C189.673 38.5979 187.16 36.9223 186.698 34.3223C186.698 34.2067 186.669 34.12 186.669 34.0334C186.669 33.2245 187.218 32.7622 188.316 32.7622C189.009 32.7622 189.442 33.0511 189.587 33.8311C189.847 35.2178 191.205 36.1712 193.111 36.1712C195.047 36.1712 197.069 34.9578 197.069 31.7222ZM197.011 25.6844V21.091C196.058 19.2421 194.7 18.2021 192.996 18.2021C190.569 18.2021 188.98 20.2243 188.98 23.431C188.98 26.6666 190.511 28.7466 192.967 28.7466C194.7 28.7466 196.058 27.62 197.011 25.6844Z" fill="white"/>
<defs>
<clipPath id="clip0_469_8492">
<rect width="30.9527" height="30.9527" fill="white" transform="translate(0.34375 4.52344)"/>
</clipPath>
</defs>
</svg>
